M48
; DRILL file KiCad 10.0.0 date 2026-04-12T23:31:10
; FORMAT={-:-/ absolute / metric / decimal}
; #@! TF.CreationDate,2026-04-12T23:31:10-04:00
; #@! TF.GenerationSoftware,Kicad,Pcbnew,10.0.0
; #@! TF.FileFunction,Plated,1,2,PTH
FMAT,2
METRIC
; #@! TA.AperFunction,Plated,PTH,ViaDrill
T1C0.300
; #@! TA.AperFunction,Plated,PTH,ComponentDrill
T2C0.800
; #@! TA.AperFunction,Plated,PTH,ComponentDrill
T3C1.000
; #@! TA.AperFunction,Plated,PTH,ComponentDrill
T4C1.200
%
G90
G05
T1
X110.25Y-82.25
X117.0Y-77.75
X179.25Y-80.25
X188.25Y-77.75
X190.125Y-80.875
T2
X180.47Y-83.75
X180.47Y-91.37
X188.09Y-83.75
X188.09Y-91.37
X193.17Y-83.75
X193.17Y-91.37
X198.25Y-83.75
X198.25Y-91.37
T3
X108.4Y-90.0
X116.0Y-90.0
X126.2Y-99.935
X126.2Y-102.475
X126.2Y-110.685
X126.2Y-113.225
X145.0Y-99.935
X145.0Y-102.475
X145.0Y-110.75
X145.0Y-113.29
X193.0Y-65.17
X193.0Y-67.71
X193.0Y-70.25
X193.0Y-72.79
X193.0Y-75.33
T4
X155.46Y-113.5
X158.0Y-113.5
X181.46Y-45.75
X184.0Y-45.75
T3
X180.75Y-105.0G85X182.75Y-105.0
G05
X180.75Y-111.0G85X182.75Y-111.0
G05
X186.45Y-109.0G85X186.45Y-107.0
G05
M30
