G04 #@! TF.GenerationSoftware,KiCad,Pcbnew,10.0.0*
G04 #@! TF.CreationDate,2026-04-12T23:31:12-04:00*
G04 #@! TF.ProjectId,gpt-alarm,6770742d-616c-4617-926d-2e6b69636164,rev?*
G04 #@! TF.SameCoordinates,Original*
G04 #@! TF.FileFunction,Copper,L2,Bot*
G04 #@! TF.FilePolarity,Positive*
%FSLAX46Y46*%
G04 Gerber Fmt 4.6, Leading zero omitted, Abs format (unit mm)*
G04 Created by KiCad (PCBNEW 10.0.0) date 2026-04-12 23:31:12*
%MOMM*%
%LPD*%
G01*
G04 APERTURE LIST*
G04 Aperture macros list*
%AMRoundRect*
0 Rectangle with rounded corners*
0 $1 Rounding radius*
0 $2 $3 $4 $5 $6 $7 $8 $9 X,Y pos of 4 corners*
0 Add a 4 corners polygon primitive as box body*
4,1,4,$2,$3,$4,$5,$6,$7,$8,$9,$2,$3,0*
0 Add four circle primitives for the rounded corners*
1,1,$1+$1,$2,$3*
1,1,$1+$1,$4,$5*
1,1,$1+$1,$6,$7*
1,1,$1+$1,$8,$9*
0 Add four rect primitives between the rounded corners*
20,1,$1+$1,$2,$3,$4,$5,0*
20,1,$1+$1,$4,$5,$6,$7,0*
20,1,$1+$1,$6,$7,$8,$9,0*
20,1,$1+$1,$8,$9,$2,$3,0*%
G04 Aperture macros list end*
G04 #@! TA.AperFunction,ComponentPad*
%ADD10R,3.500000X3.500000*%
G04 #@! TD*
G04 #@! TA.AperFunction,ComponentPad*
%ADD11RoundRect,0.750000X1.000000X-0.750000X1.000000X0.750000X-1.000000X0.750000X-1.000000X-0.750000X0*%
G04 #@! TD*
G04 #@! TA.AperFunction,ComponentPad*
%ADD12RoundRect,0.875000X0.875000X-0.875000X0.875000X0.875000X-0.875000X0.875000X-0.875000X-0.875000X0*%
G04 #@! TD*
G04 #@! TA.AperFunction,ComponentPad*
%ADD13C,1.700000*%
G04 #@! TD*
G04 #@! TA.AperFunction,ComponentPad*
%ADD14R,1.700000X1.700000*%
G04 #@! TD*
G04 #@! TA.AperFunction,ComponentPad*
%ADD15C,1.600000*%
G04 #@! TD*
G04 #@! TA.AperFunction,ComponentPad*
%ADD16R,1.800000X1.600000*%
G04 #@! TD*
G04 #@! TA.AperFunction,ComponentPad*
%ADD17RoundRect,0.250000X-0.750000X-0.750000X0.750000X-0.750000X0.750000X0.750000X-0.750000X0.750000X0*%
G04 #@! TD*
G04 #@! TA.AperFunction,ComponentPad*
%ADD18C,2.000000*%
G04 #@! TD*
G04 #@! TA.AperFunction,ComponentPad*
%ADD19R,2.000000X2.000000*%
G04 #@! TD*
G04 #@! TA.AperFunction,ViaPad*
%ADD20C,0.600000*%
G04 #@! TD*
G04 #@! TA.AperFunction,Conductor*
%ADD21C,1.000000*%
G04 #@! TD*
G04 APERTURE END LIST*
D10*
X181750000Y-105000000D03*
D11*
X181750000Y-111000000D03*
D12*
X186450000Y-108000000D03*
D13*
X193000000Y-75330000D03*
X193000000Y-72790000D03*
X193000000Y-70250000D03*
X193000000Y-67710000D03*
D14*
X193000000Y-65170000D03*
D13*
X126200000Y-110685000D03*
D14*
X126200000Y-113225000D03*
X126200000Y-102475000D03*
D13*
X126200000Y-99935000D03*
D14*
X145000000Y-102475000D03*
D13*
X145000000Y-99935000D03*
D14*
X145000000Y-113290000D03*
D13*
X145000000Y-110750000D03*
D15*
X180470000Y-83750000D03*
D16*
X180470000Y-91370000D03*
D15*
X198250000Y-83750000D03*
X193170000Y-83750000D03*
X188090000Y-83750000D03*
X198250000Y-91370000D03*
X193170000Y-91370000D03*
X188090000Y-91370000D03*
D17*
X181460000Y-45750000D03*
D18*
X184000000Y-45750000D03*
D19*
X108400000Y-90000000D03*
D18*
X116000000Y-90000000D03*
D17*
X155460000Y-113500000D03*
D18*
X158000000Y-113500000D03*
D20*
X117000000Y-77750000D03*
X110250000Y-82250000D03*
X190125000Y-80875000D03*
X179250000Y-80250000D03*
X188250000Y-77750000D03*
D21*
X190125000Y-80875000D02*
X190250000Y-80750000D01*
X190250000Y-54540000D02*
X181460000Y-45750000D01*
X190250000Y-80750000D02*
X190250000Y-54540000D01*
G04 #@! TA.AperFunction,Conductor*
G36*
X202942539Y-41020185D02*
G01*
X202988294Y-41072989D01*
X202999500Y-41124500D01*
X202999500Y-118875500D01*
X202979815Y-118942539D01*
X202927011Y-118988294D01*
X202875500Y-118999500D01*
X104124500Y-118999500D01*
X104057461Y-118979815D01*
X104011706Y-118927011D01*
X104000500Y-118875500D01*
X104000500Y-110578753D01*
X124850000Y-110578753D01*
X124850000Y-110791246D01*
X124883242Y-111001127D01*
X124883242Y-111001130D01*
X124948904Y-111203217D01*
X125045375Y-111392550D01*
X125084728Y-111446716D01*
X125717037Y-110814408D01*
X125734075Y-110877993D01*
X125799901Y-110992007D01*
X125892993Y-111085099D01*
X126007007Y-111150925D01*
X126070590Y-111167962D01*
X125401195Y-111837356D01*
X125339872Y-111870841D01*
X125325167Y-111869924D01*
X125325444Y-111872497D01*
X125242626Y-111881401D01*
X125242619Y-111881403D01*
X125107913Y-111931645D01*
X125107906Y-111931649D01*
X124992812Y-112017809D01*
X124992809Y-112017812D01*
X124906649Y-112132906D01*
X124906645Y-112132913D01*
X124856403Y-112267620D01*
X124856401Y-112267627D01*
X124850000Y-112327155D01*
X124850000Y-112975000D01*
X125766988Y-112975000D01*
X125734075Y-113032007D01*
X125700000Y-113159174D01*
X125700000Y-113290826D01*
X125734075Y-113417993D01*
X125766988Y-113475000D01*
X124850000Y-113475000D01*
X124850000Y-114122844D01*
X124856401Y-114182372D01*
X124856403Y-114182379D01*
X124906645Y-114317086D01*
X124906649Y-114317093D01*
X124992809Y-114432187D01*
X124992812Y-114432190D01*
X125107906Y-114518350D01*
X125107913Y-114518354D01*
X125242620Y-114568596D01*
X125242627Y-114568598D01*
X125302155Y-114574999D01*
X125302172Y-114575000D01*
X125950000Y-114575000D01*
X125950000Y-113658012D01*
X126007007Y-113690925D01*
X126134174Y-113725000D01*
X126265826Y-113725000D01*
X126392993Y-113690925D01*
X126450000Y-113658012D01*
X126450000Y-114575000D01*
X127097828Y-114575000D01*
X127097844Y-114574999D01*
X127157372Y-114568598D01*
X127157379Y-114568596D01*
X127292086Y-114518354D01*
X127292093Y-114518350D01*
X127407187Y-114432190D01*
X127407190Y-114432187D01*
X127493350Y-114317093D01*
X127493354Y-114317086D01*
X127543596Y-114182379D01*
X127543598Y-114182372D01*
X127549999Y-114122844D01*
X127550000Y-114122827D01*
X127550000Y-113475000D01*
X126633012Y-113475000D01*
X126665925Y-113417993D01*
X126700000Y-113290826D01*
X126700000Y-113159174D01*
X126665925Y-113032007D01*
X126633012Y-112975000D01*
X127550000Y-112975000D01*
X127550000Y-112327172D01*
X127549999Y-112327155D01*
X127543598Y-112267627D01*
X127543596Y-112267620D01*
X127493354Y-112132913D01*
X127493350Y-112132906D01*
X127407190Y-112017812D01*
X127407187Y-112017809D01*
X127292093Y-111931649D01*
X127292086Y-111931645D01*
X127157380Y-111881403D01*
X127157373Y-111881401D01*
X127074555Y-111872497D01*
X127074884Y-111869431D01*
X127057875Y-111870330D01*
X126998803Y-111837356D01*
X126329408Y-111167962D01*
X126392993Y-111150925D01*
X126507007Y-111085099D01*
X126600099Y-110992007D01*
X126665925Y-110877993D01*
X126682962Y-110814408D01*
X127315270Y-111446717D01*
X127315270Y-111446716D01*
X127354622Y-111392554D01*
X127451095Y-111203217D01*
X127516757Y-111001130D01*
X127516757Y-111001127D01*
X127550000Y-110791246D01*
X127550000Y-110643713D01*
X143649500Y-110643713D01*
X143649500Y-110856286D01*
X143682753Y-111066239D01*
X143748444Y-111268414D01*
X143844951Y-111457820D01*
X143969890Y-111629786D01*
X144083430Y-111743326D01*
X144116915Y-111804649D01*
X144111931Y-111874341D01*
X144070059Y-111930274D01*
X144039083Y-111947189D01*
X143907669Y-111996203D01*
X143907664Y-111996206D01*
X143792455Y-112082452D01*
X143792452Y-112082455D01*
X143706206Y-112197664D01*
X143706202Y-112197671D01*
X143655908Y-112332517D01*
X143649761Y-112389696D01*
X143649501Y-112392123D01*
X143649500Y-112392135D01*
X143649500Y-114187870D01*
X143649501Y-114187876D01*
X143655908Y-114247483D01*
X143706202Y-114382328D01*
X143706206Y-114382335D01*
X143792452Y-114497544D01*
X143792455Y-114497547D01*
X143907664Y-114583793D01*
X143907671Y-114583797D01*
X144042517Y-114634091D01*
X144042516Y-114634091D01*
X144049444Y-114634835D01*
X144102127Y-114640500D01*
X145897872Y-114640499D01*
X145957483Y-114634091D01*
X146092331Y-114583796D01*
X146207546Y-114497546D01*
X146293796Y-114382331D01*
X146344091Y-114247483D01*
X146350500Y-114187873D01*
X146350499Y-112699983D01*
X153959500Y-112699983D01*
X153959500Y-114300001D01*
X153959501Y-114300018D01*
X153970000Y-114402796D01*
X153970001Y-114402799D01*
X154008293Y-114518354D01*
X154025186Y-114569334D01*
X154117288Y-114718656D01*
X154241344Y-114842712D01*
X154390666Y-114934814D01*
X154557203Y-114989999D01*
X154659991Y-115000500D01*
X156260008Y-115000499D01*
X156362797Y-114989999D01*
X156529334Y-114934814D01*
X156678656Y-114842712D01*
X156802712Y-114718656D01*
X156894814Y-114569334D01*
X156949999Y-114402797D01*
X156960500Y-114300009D01*
X156960499Y-114237305D01*
X156980183Y-114170269D01*
X156996818Y-114149626D01*
X157435387Y-113711058D01*
X157440889Y-113731591D01*
X157519881Y-113868408D01*
X157631592Y-113980119D01*
X157768409Y-114059111D01*
X157788940Y-114064612D01*
X157130893Y-114722658D01*
X157213828Y-114782914D01*
X157424197Y-114890102D01*
X157648752Y-114963065D01*
X157648751Y-114963065D01*
X157881948Y-115000000D01*
X158118052Y-115000000D01*
X158351247Y-114963065D01*
X158575802Y-114890102D01*
X158786163Y-114782918D01*
X158786169Y-114782914D01*
X158869104Y-114722658D01*
X158869105Y-114722658D01*
X158211058Y-114064612D01*
X158231591Y-114059111D01*
X158368408Y-113980119D01*
X158480119Y-113868408D01*
X158559111Y-113731591D01*
X158564612Y-113711058D01*
X159222658Y-114369105D01*
X159222658Y-114369104D01*
X159282914Y-114286169D01*
X159282918Y-114286163D01*
X159390102Y-114075802D01*
X159463065Y-113851247D01*
X159500000Y-113618052D01*
X159500000Y-113381947D01*
X159463065Y-113148752D01*
X159390102Y-112924197D01*
X159282914Y-112713828D01*
X159222658Y-112630894D01*
X159222658Y-112630893D01*
X158564612Y-113288940D01*
X158559111Y-113268409D01*
X158480119Y-113131592D01*
X158368408Y-113019881D01*
X158231591Y-112940889D01*
X158211059Y-112935387D01*
X158869105Y-112277340D01*
X158869104Y-112277338D01*
X158786174Y-112217087D01*
X158575802Y-112109897D01*
X158351247Y-112036934D01*
X158351248Y-112036934D01*
X158118052Y-112000000D01*
X157881948Y-112000000D01*
X157648752Y-112036934D01*
X157424197Y-112109897D01*
X157213830Y-112217084D01*
X157130894Y-112277340D01*
X157788941Y-112935387D01*
X157768409Y-112940889D01*
X157631592Y-113019881D01*
X157519881Y-113131592D01*
X157440889Y-113268409D01*
X157435387Y-113288941D01*
X156996818Y-112850372D01*
X156963333Y-112789049D01*
X156960499Y-112762691D01*
X156960499Y-112699998D01*
X156960498Y-112699981D01*
X156949999Y-112597203D01*
X156949998Y-112597200D01*
X156894814Y-112430666D01*
X156802712Y-112281344D01*
X156678656Y-112157288D01*
X156529334Y-112065186D01*
X156362797Y-112010001D01*
X156362795Y-112010000D01*
X156260010Y-111999500D01*
X154659998Y-111999500D01*
X154659981Y-111999501D01*
X154557203Y-112010000D01*
X154557200Y-112010001D01*
X154390668Y-112065185D01*
X154390663Y-112065187D01*
X154241342Y-112157289D01*
X154117289Y-112281342D01*
X154025187Y-112430663D01*
X154025186Y-112430666D01*
X153970001Y-112597203D01*
X153970001Y-112597204D01*
X153970000Y-112597204D01*
X153959500Y-112699983D01*
X146350499Y-112699983D01*
X146350499Y-112392128D01*
X146344091Y-112332517D01*
X146342097Y-112327172D01*
X146293797Y-112197671D01*
X146293793Y-112197664D01*
X146207547Y-112082455D01*
X146207544Y-112082452D01*
X146092335Y-111996206D01*
X146092328Y-111996202D01*
X145960917Y-111947189D01*
X145904983Y-111905318D01*
X145880566Y-111839853D01*
X145895418Y-111771580D01*
X145916563Y-111743332D01*
X146030104Y-111629792D01*
X146155051Y-111457816D01*
X146251557Y-111268412D01*
X146317246Y-111066243D01*
X146350500Y-110856287D01*
X146350500Y-110643713D01*
X146317246Y-110433757D01*
X146251557Y-110231588D01*
X146251556Y-110231586D01*
X146251555Y-110231584D01*
X146228215Y-110185777D01*
X179499500Y-110185777D01*
X179499500Y-111814208D01*
X179499501Y-111814223D01*
X179509904Y-111946413D01*
X179509905Y-111946420D01*
X179564902Y-112164678D01*
X179564903Y-112164681D01*
X179657991Y-112369622D01*
X179657997Y-112369632D01*
X179786174Y-112554645D01*
X179786178Y-112554650D01*
X179786181Y-112554654D01*
X179945346Y-112713819D01*
X179945350Y-112713822D01*
X179945354Y-112713825D01*
X180010669Y-112759075D01*
X180130374Y-112842007D01*
X180335317Y-112935096D01*
X180335321Y-112935097D01*
X180553579Y-112990094D01*
X180553581Y-112990094D01*
X180553588Y-112990096D01*
X180685783Y-113000500D01*
X182814216Y-113000499D01*
X182946412Y-112990096D01*
X183164683Y-112935096D01*
X183369626Y-112842007D01*
X183554654Y-112713819D01*
X183713819Y-112554654D01*
X183842007Y-112369626D01*
X183935096Y-112164683D01*
X183990096Y-111946412D01*
X184000500Y-111814217D01*
X184000499Y-110185784D01*
X183990096Y-110053588D01*
X183987222Y-110042184D01*
X183935097Y-109835321D01*
X183935096Y-109835318D01*
X183882669Y-109719896D01*
X183842007Y-109630374D01*
X183772731Y-109530380D01*
X183713825Y-109445354D01*
X183713822Y-109445350D01*
X183713819Y-109445346D01*
X183554654Y-109286181D01*
X183554650Y-109286178D01*
X183554645Y-109286174D01*
X183369632Y-109157997D01*
X183369630Y-109157995D01*
X183369626Y-109157993D01*
X183164683Y-109064904D01*
X183164681Y-109064903D01*
X183164678Y-109064902D01*
X182946420Y-109009905D01*
X182946413Y-109009904D01*
X182902347Y-109006436D01*
X182814217Y-108999500D01*
X182814215Y-108999500D01*
X180685791Y-108999500D01*
X180685776Y-108999501D01*
X180553586Y-109009904D01*
X180553579Y-109009905D01*
X180335321Y-109064902D01*
X180335318Y-109064903D01*
X180130377Y-109157991D01*
X180130367Y-109157997D01*
X179945354Y-109286174D01*
X179945342Y-109286184D01*
X179786184Y-109445342D01*
X179786174Y-109445354D01*
X179657997Y-109630367D01*
X179657991Y-109630377D01*
X179564903Y-109835318D01*
X179564902Y-109835321D01*
X179509905Y-110053579D01*
X179509904Y-110053586D01*
X179499500Y-110185777D01*
X146228215Y-110185777D01*
X146194761Y-110120120D01*
X146155051Y-110042184D01*
X146155049Y-110042181D01*
X146155048Y-110042179D01*
X146030109Y-109870213D01*
X145879786Y-109719890D01*
X145707820Y-109594951D01*
X145518414Y-109498444D01*
X145518413Y-109498443D01*
X145518412Y-109498443D01*
X145316243Y-109432754D01*
X145316241Y-109432753D01*
X145316240Y-109432753D01*
X145154957Y-109407208D01*
X145106287Y-109399500D01*
X144893713Y-109399500D01*
X144845042Y-109407208D01*
X144683760Y-109432753D01*
X144481585Y-109498444D01*
X144292179Y-109594951D01*
X144120213Y-109719890D01*
X143969890Y-109870213D01*
X143844951Y-110042179D01*
X143748444Y-110231585D01*
X143682753Y-110433760D01*
X143649500Y-110643713D01*
X127550000Y-110643713D01*
X127550000Y-110578753D01*
X127516757Y-110368872D01*
X127516757Y-110368869D01*
X127451095Y-110166782D01*
X127354624Y-109977449D01*
X127315270Y-109923282D01*
X127315269Y-109923282D01*
X126682962Y-110555590D01*
X126665925Y-110492007D01*
X126600099Y-110377993D01*
X126507007Y-110284901D01*
X126392993Y-110219075D01*
X126329409Y-110202037D01*
X126961716Y-109569728D01*
X126907550Y-109530375D01*
X126718217Y-109433904D01*
X126516129Y-109368242D01*
X126306246Y-109335000D01*
X126093754Y-109335000D01*
X125883872Y-109368242D01*
X125883869Y-109368242D01*
X125681782Y-109433904D01*
X125492439Y-109530380D01*
X125438282Y-109569727D01*
X125438282Y-109569728D01*
X126070591Y-110202037D01*
X126007007Y-110219075D01*
X125892993Y-110284901D01*
X125799901Y-110377993D01*
X125734075Y-110492007D01*
X125717037Y-110555591D01*
X125084728Y-109923282D01*
X125084727Y-109923282D01*
X125045380Y-109977439D01*
X124948904Y-110166782D01*
X124883242Y-110368869D01*
X124883242Y-110368872D01*
X124850000Y-110578753D01*
X104000500Y-110578753D01*
X104000500Y-102377065D01*
X105624500Y-102377065D01*
X105624500Y-102622934D01*
X105645444Y-102782007D01*
X105656591Y-102866677D01*
X105694370Y-103007671D01*
X105720222Y-103104152D01*
X105720225Y-103104162D01*
X105814303Y-103331285D01*
X105814306Y-103331292D01*
X105937233Y-103544208D01*
X105937235Y-103544211D01*
X105937236Y-103544212D01*
X106086897Y-103739254D01*
X106086903Y-103739261D01*
X106260738Y-103913096D01*
X106260744Y-103913101D01*
X106455792Y-104062767D01*
X106668708Y-104185694D01*
X106895847Y-104279778D01*
X107133323Y-104343409D01*
X107377073Y-104375500D01*
X107377080Y-104375500D01*
X107622920Y-104375500D01*
X107622927Y-104375500D01*
X107866677Y-104343409D01*
X108104153Y-104279778D01*
X108331292Y-104185694D01*
X108544208Y-104062767D01*
X108739256Y-103913101D01*
X108913101Y-103739256D01*
X109062767Y-103544208D01*
X109185694Y-103331292D01*
X109279778Y-103104153D01*
X109343409Y-102866677D01*
X109375500Y-102622927D01*
X109375500Y-102377073D01*
X109343409Y-102133323D01*
X109279778Y-101895847D01*
X109185694Y-101668708D01*
X109062767Y-101455792D01*
X109001030Y-101375335D01*
X108913102Y-101260745D01*
X108913096Y-101260738D01*
X108739261Y-101086903D01*
X108739254Y-101086897D01*
X108544212Y-100937236D01*
X108544211Y-100937235D01*
X108544208Y-100937233D01*
X108332134Y-100814792D01*
X108331294Y-100814307D01*
X108331285Y-100814303D01*
X108104162Y-100720225D01*
X108104155Y-100720223D01*
X108104153Y-100720222D01*
X107866677Y-100656591D01*
X107825939Y-100651227D01*
X107622934Y-100624500D01*
X107622927Y-100624500D01*
X107377073Y-100624500D01*
X107377065Y-100624500D01*
X107145059Y-100655045D01*
X107133323Y-100656591D01*
X106983570Y-100696717D01*
X106895847Y-100720222D01*
X106895837Y-100720225D01*
X106668714Y-100814303D01*
X106668705Y-100814307D01*
X106455787Y-100937236D01*
X106260745Y-101086897D01*
X106260738Y-101086903D01*
X106086903Y-101260738D01*
X106086897Y-101260745D01*
X105937236Y-101455787D01*
X105814307Y-101668705D01*
X105814303Y-101668714D01*
X105720225Y-101895837D01*
X105720222Y-101895847D01*
X105668799Y-102087764D01*
X105656592Y-102133320D01*
X105656590Y-102133331D01*
X105624500Y-102377065D01*
X104000500Y-102377065D01*
X104000500Y-99828713D01*
X124849500Y-99828713D01*
X124849500Y-100041286D01*
X124882753Y-100251239D01*
X124948444Y-100453414D01*
X125044951Y-100642820D01*
X125169890Y-100814786D01*
X125283430Y-100928326D01*
X125316915Y-100989649D01*
X125311931Y-101059341D01*
X125270059Y-101115274D01*
X125239083Y-101132189D01*
X125107669Y-101181203D01*
X125107664Y-101181206D01*
X124992455Y-101267452D01*
X124992452Y-101267455D01*
X124906206Y-101382664D01*
X124906202Y-101382671D01*
X124855908Y-101517517D01*
X124849501Y-101577116D01*
X124849501Y-101577123D01*
X124849500Y-101577135D01*
X124849500Y-103372870D01*
X124849501Y-103372876D01*
X124855908Y-103432483D01*
X124906202Y-103567328D01*
X124906206Y-103567335D01*
X124992452Y-103682544D01*
X124992455Y-103682547D01*
X125107664Y-103768793D01*
X125107671Y-103768797D01*
X125242517Y-103819091D01*
X125242516Y-103819091D01*
X125249444Y-103819835D01*
X125302127Y-103825500D01*
X127097872Y-103825499D01*
X127157483Y-103819091D01*
X127292331Y-103768796D01*
X127407546Y-103682546D01*
X127493796Y-103567331D01*
X127544091Y-103432483D01*
X127550500Y-103372873D01*
X127550500Y-102540826D01*
X127550500Y-102373014D01*
X127550499Y-101577129D01*
X127550498Y-101577123D01*
X127550497Y-101577116D01*
X127544091Y-101517517D01*
X127521067Y-101455787D01*
X127493797Y-101382671D01*
X127493793Y-101382664D01*
X127407547Y-101267455D01*
X127407544Y-101267452D01*
X127292335Y-101181206D01*
X127292328Y-101181202D01*
X127160917Y-101132189D01*
X127104983Y-101090318D01*
X127080566Y-101024853D01*
X127095418Y-100956580D01*
X127116563Y-100928332D01*
X127230104Y-100814792D01*
X127230457Y-100814307D01*
X127355048Y-100642820D01*
X127355047Y-100642820D01*
X127355051Y-100642816D01*
X127451557Y-100453412D01*
X127517246Y-100251243D01*
X127550500Y-100041287D01*
X127550500Y-99828753D01*
X143650000Y-99828753D01*
X143650000Y-100041246D01*
X143683242Y-100251127D01*
X143683242Y-100251130D01*
X143748904Y-100453217D01*
X143845375Y-100642550D01*
X143884728Y-100696716D01*
X144517037Y-100064408D01*
X144534075Y-100127993D01*
X144599901Y-100242007D01*
X144692993Y-100335099D01*
X144807007Y-100400925D01*
X144870590Y-100417962D01*
X144201195Y-101087356D01*
X144139872Y-101120841D01*
X144125167Y-101119924D01*
X144125444Y-101122497D01*
X144042626Y-101131401D01*
X144042619Y-101131403D01*
X143907913Y-101181645D01*
X143907906Y-101181649D01*
X143792812Y-101267809D01*
X143792809Y-101267812D01*
X143706649Y-101382906D01*
X143706645Y-101382913D01*
X143656403Y-101517620D01*
X143656401Y-101517627D01*
X143650000Y-101577155D01*
X143650000Y-102225000D01*
X144566988Y-102225000D01*
X144534075Y-102282007D01*
X144500000Y-102409174D01*
X144500000Y-102540826D01*
X144534075Y-102667993D01*
X144566988Y-102725000D01*
X143650000Y-102725000D01*
X143650000Y-103372844D01*
X143656401Y-103432372D01*
X143656403Y-103432379D01*
X143706645Y-103567086D01*
X143706649Y-103567093D01*
X143792809Y-103682187D01*
X143792812Y-103682190D01*
X143907906Y-103768350D01*
X143907913Y-103768354D01*
X144042620Y-103818596D01*
X144042627Y-103818598D01*
X144102155Y-103824999D01*
X144102172Y-103825000D01*
X144750000Y-103825000D01*
X144750000Y-102908012D01*
X144807007Y-102940925D01*
X144934174Y-102975000D01*
X145065826Y-102975000D01*
X145192993Y-102940925D01*
X145250000Y-102908012D01*
X145250000Y-103825000D01*
X145897828Y-103825000D01*
X145897844Y-103824999D01*
X145957372Y-103818598D01*
X145957379Y-103818596D01*
X146092086Y-103768354D01*
X146092093Y-103768350D01*
X146207187Y-103682190D01*
X146207190Y-103682187D01*
X146293350Y-103567093D01*
X146293354Y-103567086D01*
X146343596Y-103432379D01*
X146343598Y-103432372D01*
X146349999Y-103372844D01*
X146350000Y-103372827D01*
X146350000Y-103202135D01*
X179499500Y-103202135D01*
X179499500Y-106797870D01*
X179499501Y-106797876D01*
X179505908Y-106857483D01*
X179556202Y-106992328D01*
X179556206Y-106992335D01*
X179642452Y-107107544D01*
X179642455Y-107107547D01*
X179757664Y-107193793D01*
X179757671Y-107193797D01*
X179892517Y-107244091D01*
X179892516Y-107244091D01*
X179899444Y-107244835D01*
X179952127Y-107250500D01*
X183547872Y-107250499D01*
X183607483Y-107244091D01*
X183742331Y-107193796D01*
X183857546Y-107107546D01*
X183943796Y-106992331D01*
X183962012Y-106943491D01*
X184003880Y-106887560D01*
X184069344Y-106863141D01*
X184137617Y-106877991D01*
X184187024Y-106927396D01*
X184202018Y-106993401D01*
X184200001Y-107031374D01*
X184200000Y-107031421D01*
X184200000Y-107750000D01*
X185950000Y-107750000D01*
X185950000Y-108250000D01*
X184200001Y-108250000D01*
X184200001Y-108968588D01*
X184202794Y-109021191D01*
X184247237Y-109250987D01*
X184329879Y-109469975D01*
X184448339Y-109671841D01*
X184448344Y-109671848D01*
X184599211Y-109850786D01*
X184599213Y-109850788D01*
X184778151Y-110001655D01*
X184778158Y-110001660D01*
X184980024Y-110120120D01*
X185199012Y-110202762D01*
X185428809Y-110247205D01*
X185481382Y-110249998D01*
X185481421Y-110249999D01*
X186199999Y-110249999D01*
X186200000Y-110249998D01*
X186200000Y-109433012D01*
X186257007Y-109465925D01*
X186384174Y-109500000D01*
X186515826Y-109500000D01*
X186642993Y-109465925D01*
X186700000Y-109433012D01*
X186700000Y-110249999D01*
X187418576Y-110249999D01*
X187418588Y-110249998D01*
X187471191Y-110247205D01*
X187700987Y-110202762D01*
X187919975Y-110120120D01*
X188121841Y-110001660D01*
X188121848Y-110001655D01*
X188300786Y-109850788D01*
X188300788Y-109850786D01*
X188451655Y-109671848D01*
X188451660Y-109671841D01*
X188570120Y-109469975D01*
X188652762Y-109250987D01*
X188697205Y-109021191D01*
X188697205Y-109021190D01*
X188699998Y-108968617D01*
X188700000Y-108968578D01*
X188700000Y-108250000D01*
X186950000Y-108250000D01*
X186950000Y-107750000D01*
X188699999Y-107750000D01*
X188699999Y-107031423D01*
X188699998Y-107031411D01*
X188697205Y-106978808D01*
X188652762Y-106749012D01*
X188570120Y-106530024D01*
X188451660Y-106328158D01*
X188451655Y-106328151D01*
X188300788Y-106149213D01*
X188300786Y-106149211D01*
X188121848Y-105998344D01*
X188121841Y-105998339D01*
X187919975Y-105879879D01*
X187700987Y-105797237D01*
X187471190Y-105752794D01*
X187418617Y-105750001D01*
X187418579Y-105750000D01*
X186700000Y-105750000D01*
X186700000Y-106566988D01*
X186642993Y-106534075D01*
X186515826Y-106500000D01*
X186384174Y-106500000D01*
X186257007Y-106534075D01*
X186200000Y-106566988D01*
X186200000Y-105750000D01*
X185481423Y-105750000D01*
X185481411Y-105750001D01*
X185428808Y-105752794D01*
X185199012Y-105797237D01*
X184980024Y-105879879D01*
X184778158Y-105998339D01*
X184778151Y-105998344D01*
X184599213Y-106149211D01*
X184599211Y-106149213D01*
X184448344Y-106328151D01*
X184448339Y-106328158D01*
X184329879Y-106530024D01*
X184247236Y-106749014D01*
X184246241Y-106754161D01*
X184214179Y-106816240D01*
X184153644Y-106851130D01*
X184083856Y-106847754D01*
X184026972Y-106807184D01*
X184001052Y-106742300D01*
X184000499Y-106730624D01*
X184000499Y-103202128D01*
X183994091Y-103142517D01*
X183979782Y-103104153D01*
X183943797Y-103007671D01*
X183943793Y-103007664D01*
X183857547Y-102892455D01*
X183857544Y-102892452D01*
X183742335Y-102806206D01*
X183742328Y-102806202D01*
X183607482Y-102755908D01*
X183607483Y-102755908D01*
X183547883Y-102749501D01*
X183547881Y-102749500D01*
X183547873Y-102749500D01*
X183547864Y-102749500D01*
X179952129Y-102749500D01*
X179952123Y-102749501D01*
X179892516Y-102755908D01*
X179757671Y-102806202D01*
X179757664Y-102806206D01*
X179642455Y-102892452D01*
X179642452Y-102892455D01*
X179556206Y-103007664D01*
X179556202Y-103007671D01*
X179505908Y-103142517D01*
X179502309Y-103175998D01*
X179499501Y-103202123D01*
X179499500Y-103202135D01*
X146350000Y-103202135D01*
X146350000Y-102725000D01*
X145433012Y-102725000D01*
X145465925Y-102667993D01*
X145500000Y-102540826D01*
X145500000Y-102409174D01*
X145491396Y-102377065D01*
X191624500Y-102377065D01*
X191624500Y-102622934D01*
X191645444Y-102782007D01*
X191656591Y-102866677D01*
X191694370Y-103007671D01*
X191720222Y-103104152D01*
X191720225Y-103104162D01*
X191814303Y-103331285D01*
X191814306Y-103331292D01*
X191937233Y-103544208D01*
X191937235Y-103544211D01*
X191937236Y-103544212D01*
X192086897Y-103739254D01*
X192086903Y-103739261D01*
X192260738Y-103913096D01*
X192260744Y-103913101D01*
X192455792Y-104062767D01*
X192668708Y-104185694D01*
X192895847Y-104279778D01*
X193133323Y-104343409D01*
X193377073Y-104375500D01*
X193377080Y-104375500D01*
X193622920Y-104375500D01*
X193622927Y-104375500D01*
X193866677Y-104343409D01*
X194104153Y-104279778D01*
X194331292Y-104185694D01*
X194544208Y-104062767D01*
X194739256Y-103913101D01*
X194913101Y-103739256D01*
X195062767Y-103544208D01*
X195185694Y-103331292D01*
X195279778Y-103104153D01*
X195343409Y-102866677D01*
X195375500Y-102622927D01*
X195375500Y-102377073D01*
X195343409Y-102133323D01*
X195279778Y-101895847D01*
X195185694Y-101668708D01*
X195062767Y-101455792D01*
X195001030Y-101375335D01*
X194913102Y-101260745D01*
X194913096Y-101260738D01*
X194739261Y-101086903D01*
X194739254Y-101086897D01*
X194544212Y-100937236D01*
X194544211Y-100937235D01*
X194544208Y-100937233D01*
X194332134Y-100814792D01*
X194331294Y-100814307D01*
X194331285Y-100814303D01*
X194104162Y-100720225D01*
X194104155Y-100720223D01*
X194104153Y-100720222D01*
X193866677Y-100656591D01*
X193825939Y-100651227D01*
X193622934Y-100624500D01*
X193622927Y-100624500D01*
X193377073Y-100624500D01*
X193377065Y-100624500D01*
X193145059Y-100655045D01*
X193133323Y-100656591D01*
X192983570Y-100696717D01*
X192895847Y-100720222D01*
X192895837Y-100720225D01*
X192668714Y-100814303D01*
X192668705Y-100814307D01*
X192455787Y-100937236D01*
X192260745Y-101086897D01*
X192260738Y-101086903D01*
X192086903Y-101260738D01*
X192086897Y-101260745D01*
X191937236Y-101455787D01*
X191814307Y-101668705D01*
X191814303Y-101668714D01*
X191720225Y-101895837D01*
X191720222Y-101895847D01*
X191668799Y-102087764D01*
X191656592Y-102133320D01*
X191656590Y-102133331D01*
X191624500Y-102377065D01*
X145491396Y-102377065D01*
X145465925Y-102282007D01*
X145433012Y-102225000D01*
X146350000Y-102225000D01*
X146350000Y-101577172D01*
X146349999Y-101577155D01*
X146343598Y-101517627D01*
X146343596Y-101517620D01*
X146293354Y-101382913D01*
X146293350Y-101382906D01*
X146207190Y-101267812D01*
X146207187Y-101267809D01*
X146092093Y-101181649D01*
X146092086Y-101181645D01*
X145957380Y-101131403D01*
X145957373Y-101131401D01*
X145874555Y-101122497D01*
X145874884Y-101119431D01*
X145857875Y-101120330D01*
X145798803Y-101087356D01*
X145129408Y-100417962D01*
X145192993Y-100400925D01*
X145307007Y-100335099D01*
X145400099Y-100242007D01*
X145465925Y-100127993D01*
X145482962Y-100064408D01*
X146115270Y-100696717D01*
X146115270Y-100696716D01*
X146154622Y-100642554D01*
X146251095Y-100453217D01*
X146316757Y-100251130D01*
X146316757Y-100251127D01*
X146350000Y-100041246D01*
X146350000Y-99828753D01*
X146316757Y-99618872D01*
X146316757Y-99618869D01*
X146251095Y-99416782D01*
X146154624Y-99227449D01*
X146115270Y-99173282D01*
X146115269Y-99173282D01*
X145482962Y-99805590D01*
X145465925Y-99742007D01*
X145400099Y-99627993D01*
X145307007Y-99534901D01*
X145192993Y-99469075D01*
X145129409Y-99452037D01*
X145761716Y-98819728D01*
X145707550Y-98780375D01*
X145518217Y-98683904D01*
X145316129Y-98618242D01*
X145106246Y-98585000D01*
X144893754Y-98585000D01*
X144683872Y-98618242D01*
X144683869Y-98618242D01*
X144481782Y-98683904D01*
X144292439Y-98780380D01*
X144238282Y-98819727D01*
X144238282Y-98819728D01*
X144870591Y-99452037D01*
X144807007Y-99469075D01*
X144692993Y-99534901D01*
X144599901Y-99627993D01*
X144534075Y-99742007D01*
X144517037Y-99805591D01*
X143884728Y-99173282D01*
X143884727Y-99173282D01*
X143845380Y-99227439D01*
X143748904Y-99416782D01*
X143683242Y-99618869D01*
X143683242Y-99618872D01*
X143650000Y-99828753D01*
X127550500Y-99828753D01*
X127550500Y-99828713D01*
X127517246Y-99618757D01*
X127451557Y-99416588D01*
X127355051Y-99227184D01*
X127355049Y-99227181D01*
X127355048Y-99227179D01*
X127230109Y-99055213D01*
X127079786Y-98904890D01*
X126907820Y-98779951D01*
X126718414Y-98683444D01*
X126718413Y-98683443D01*
X126718412Y-98683443D01*
X126516243Y-98617754D01*
X126516241Y-98617753D01*
X126516240Y-98617753D01*
X126354957Y-98592208D01*
X126306287Y-98584500D01*
X126093713Y-98584500D01*
X126045042Y-98592208D01*
X125883760Y-98617753D01*
X125681585Y-98683444D01*
X125492179Y-98779951D01*
X125320213Y-98904890D01*
X125169890Y-99055213D01*
X125044951Y-99227179D01*
X124948444Y-99416585D01*
X124882753Y-99618760D01*
X124849500Y-99828713D01*
X104000500Y-99828713D01*
X104000500Y-88952135D01*
X106899500Y-88952135D01*
X106899500Y-91047870D01*
X106899501Y-91047876D01*
X106905908Y-91107483D01*
X106956202Y-91242328D01*
X106956206Y-91242335D01*
X107042452Y-91357544D01*
X107042455Y-91357547D01*
X107157664Y-91443793D01*
X107157671Y-91443797D01*
X107292517Y-91494091D01*
X107292516Y-91494091D01*
X107299444Y-91494835D01*
X107352127Y-91500500D01*
X109447872Y-91500499D01*
X109507483Y-91494091D01*
X109642331Y-91443796D01*
X109757546Y-91357546D01*
X109843796Y-91242331D01*
X109894091Y-91107483D01*
X109900500Y-91047873D01*
X109900499Y-89881902D01*
X114499500Y-89881902D01*
X114499500Y-90118097D01*
X114536446Y-90351368D01*
X114609433Y-90575996D01*
X114716657Y-90786433D01*
X114855483Y-90977510D01*
X115022490Y-91144517D01*
X115213567Y-91283343D01*
X115312991Y-91334002D01*
X115424003Y-91390566D01*
X115424005Y-91390566D01*
X115424008Y-91390568D01*
X115544412Y-91429689D01*
X115648631Y-91463553D01*
X115881903Y-91500500D01*
X115881908Y-91500500D01*
X116118097Y-91500500D01*
X116351368Y-91463553D01*
X116575992Y-91390568D01*
X116786433Y-91283343D01*
X116977510Y-91144517D01*
X117144517Y-90977510D01*
X117283343Y-90786433D01*
X117390568Y-90575992D01*
X117408067Y-90522135D01*
X179069500Y-90522135D01*
X179069500Y-92217870D01*
X179069501Y-92217876D01*
X179075908Y-92277483D01*
X179126202Y-92412328D01*
X179126206Y-92412335D01*
X179212452Y-92527544D01*
X179212455Y-92527547D01*
X179327664Y-92613793D01*
X179327671Y-92613797D01*
X179462517Y-92664091D01*
X179462516Y-92664091D01*
X179469444Y-92664835D01*
X179522127Y-92670500D01*
X181417872Y-92670499D01*
X181477483Y-92664091D01*
X181612331Y-92613796D01*
X181727546Y-92527546D01*
X181813796Y-92412331D01*
X181864091Y-92277483D01*
X181870500Y-92217873D01*
X181870499Y-91267648D01*
X186789500Y-91267648D01*
X186789500Y-91472351D01*
X186821522Y-91674534D01*
X186884781Y-91869223D01*
X186977715Y-92051613D01*
X187098028Y-92217213D01*
X187242786Y-92361971D01*
X187397749Y-92474556D01*
X187408390Y-92482287D01*
X187497212Y-92527544D01*
X187590776Y-92575218D01*
X187590778Y-92575218D01*
X187590781Y-92575220D01*
X187695137Y-92609127D01*
X187785465Y-92638477D01*
X187886557Y-92654488D01*
X187987648Y-92670500D01*
X187987649Y-92670500D01*
X188192351Y-92670500D01*
X188192352Y-92670500D01*
X188394534Y-92638477D01*
X188589219Y-92575220D01*
X188771610Y-92482287D01*
X188867901Y-92412328D01*
X188937213Y-92361971D01*
X188937215Y-92361968D01*
X188937219Y-92361966D01*
X189081966Y-92217219D01*
X189081968Y-92217215D01*
X189081971Y-92217213D01*
X189134732Y-92144590D01*
X189202287Y-92051610D01*
X189295220Y-91869219D01*
X189358477Y-91674534D01*
X189390500Y-91472352D01*
X189390500Y-91267648D01*
X191869500Y-91267648D01*
X191869500Y-91472351D01*
X191901522Y-91674534D01*
X191964781Y-91869223D01*
X192057715Y-92051613D01*
X192178028Y-92217213D01*
X192322786Y-92361971D01*
X192477749Y-92474556D01*
X192488390Y-92482287D01*
X192577212Y-92527544D01*
X192670776Y-92575218D01*
X192670778Y-92575218D01*
X192670781Y-92575220D01*
X192775137Y-92609127D01*
X192865465Y-92638477D01*
X192966557Y-92654488D01*
X193067648Y-92670500D01*
X193067649Y-92670500D01*
X193272351Y-92670500D01*
X193272352Y-92670500D01*
X193474534Y-92638477D01*
X193669219Y-92575220D01*
X193851610Y-92482287D01*
X193947901Y-92412328D01*
X194017213Y-92361971D01*
X194017215Y-92361968D01*
X194017219Y-92361966D01*
X194161966Y-92217219D01*
X194161968Y-92217215D01*
X194161971Y-92217213D01*
X194214732Y-92144590D01*
X194282287Y-92051610D01*
X194375220Y-91869219D01*
X194438477Y-91674534D01*
X194470500Y-91472352D01*
X194470500Y-91267648D01*
X196949500Y-91267648D01*
X196949500Y-91472351D01*
X196981522Y-91674534D01*
X197044781Y-91869223D01*
X197137715Y-92051613D01*
X197258028Y-92217213D01*
X197402786Y-92361971D01*
X197557749Y-92474556D01*
X197568390Y-92482287D01*
X197657212Y-92527544D01*
X197750776Y-92575218D01*
X197750778Y-92575218D01*
X197750781Y-92575220D01*
X197855137Y-92609127D01*
X197945465Y-92638477D01*
X198046557Y-92654488D01*
X198147648Y-92670500D01*
X198147649Y-92670500D01*
X198352351Y-92670500D01*
X198352352Y-92670500D01*
X198554534Y-92638477D01*
X198749219Y-92575220D01*
X198931610Y-92482287D01*
X199027901Y-92412328D01*
X199097213Y-92361971D01*
X199097215Y-92361968D01*
X199097219Y-92361966D01*
X199241966Y-92217219D01*
X199241968Y-92217215D01*
X199241971Y-92217213D01*
X199294732Y-92144590D01*
X199362287Y-92051610D01*
X199455220Y-91869219D01*
X199518477Y-91674534D01*
X199550500Y-91472352D01*
X199550500Y-91267648D01*
X199518477Y-91065466D01*
X199512760Y-91047872D01*
X199455218Y-90870776D01*
X199412242Y-90786433D01*
X199362287Y-90688390D01*
X199354556Y-90677749D01*
X199241971Y-90522786D01*
X199097213Y-90378028D01*
X198931613Y-90257715D01*
X198931612Y-90257714D01*
X198931610Y-90257713D01*
X198874653Y-90228691D01*
X198749223Y-90164781D01*
X198554534Y-90101522D01*
X198379995Y-90073878D01*
X198352352Y-90069500D01*
X198147648Y-90069500D01*
X198123329Y-90073351D01*
X197945465Y-90101522D01*
X197750776Y-90164781D01*
X197568386Y-90257715D01*
X197402786Y-90378028D01*
X197258028Y-90522786D01*
X197137715Y-90688386D01*
X197044781Y-90870776D01*
X196981522Y-91065465D01*
X196949500Y-91267648D01*
X194470500Y-91267648D01*
X194438477Y-91065466D01*
X194432760Y-91047872D01*
X194375218Y-90870776D01*
X194332242Y-90786433D01*
X194282287Y-90688390D01*
X194274556Y-90677749D01*
X194161971Y-90522786D01*
X194017213Y-90378028D01*
X193851613Y-90257715D01*
X193851612Y-90257714D01*
X193851610Y-90257713D01*
X193794653Y-90228691D01*
X193669223Y-90164781D01*
X193474534Y-90101522D01*
X193299995Y-90073878D01*
X193272352Y-90069500D01*
X193067648Y-90069500D01*
X193043329Y-90073351D01*
X192865465Y-90101522D01*
X192670776Y-90164781D01*
X192488386Y-90257715D01*
X192322786Y-90378028D01*
X192178028Y-90522786D01*
X192057715Y-90688386D01*
X191964781Y-90870776D01*
X191901522Y-91065465D01*
X191869500Y-91267648D01*
X189390500Y-91267648D01*
X189358477Y-91065466D01*
X189352760Y-91047872D01*
X189295218Y-90870776D01*
X189252242Y-90786433D01*
X189202287Y-90688390D01*
X189194556Y-90677749D01*
X189081971Y-90522786D01*
X188937213Y-90378028D01*
X188771613Y-90257715D01*
X188771612Y-90257714D01*
X188771610Y-90257713D01*
X188714653Y-90228691D01*
X188589223Y-90164781D01*
X188394534Y-90101522D01*
X188219995Y-90073878D01*
X188192352Y-90069500D01*
X187987648Y-90069500D01*
X187963329Y-90073351D01*
X187785465Y-90101522D01*
X187590776Y-90164781D01*
X187408386Y-90257715D01*
X187242786Y-90378028D01*
X187098028Y-90522786D01*
X186977715Y-90688386D01*
X186884781Y-90870776D01*
X186821522Y-91065465D01*
X186789500Y-91267648D01*
X181870499Y-91267648D01*
X181870499Y-90522128D01*
X181864091Y-90462517D01*
X181813796Y-90327669D01*
X181813795Y-90327668D01*
X181813793Y-90327664D01*
X181727547Y-90212455D01*
X181727544Y-90212452D01*
X181612335Y-90126206D01*
X181612328Y-90126202D01*
X181477482Y-90075908D01*
X181477483Y-90075908D01*
X181417883Y-90069501D01*
X181417881Y-90069500D01*
X181417873Y-90069500D01*
X181417864Y-90069500D01*
X179522129Y-90069500D01*
X179522123Y-90069501D01*
X179462516Y-90075908D01*
X179327671Y-90126202D01*
X179327664Y-90126206D01*
X179212455Y-90212452D01*
X179212452Y-90212455D01*
X179126206Y-90327664D01*
X179126202Y-90327671D01*
X179075908Y-90462517D01*
X179069501Y-90522116D01*
X179069501Y-90522123D01*
X179069500Y-90522135D01*
X117408067Y-90522135D01*
X117463553Y-90351368D01*
X117478386Y-90257715D01*
X117500500Y-90118097D01*
X117500500Y-89881902D01*
X117463553Y-89648631D01*
X117390566Y-89424003D01*
X117283342Y-89213566D01*
X117144517Y-89022490D01*
X116977510Y-88855483D01*
X116786433Y-88716657D01*
X116575996Y-88609433D01*
X116351368Y-88536446D01*
X116118097Y-88499500D01*
X116118092Y-88499500D01*
X115881908Y-88499500D01*
X115881903Y-88499500D01*
X115648631Y-88536446D01*
X115424003Y-88609433D01*
X115213566Y-88716657D01*
X115157119Y-88757669D01*
X115022490Y-88855483D01*
X115022488Y-88855485D01*
X115022487Y-88855485D01*
X114855485Y-89022487D01*
X114855485Y-89022488D01*
X114855483Y-89022490D01*
X114795862Y-89104550D01*
X114716657Y-89213566D01*
X114609433Y-89424003D01*
X114536446Y-89648631D01*
X114499500Y-89881902D01*
X109900499Y-89881902D01*
X109900499Y-88952128D01*
X109894091Y-88892517D01*
X109880278Y-88855483D01*
X109843797Y-88757671D01*
X109843793Y-88757664D01*
X109757547Y-88642455D01*
X109757544Y-88642452D01*
X109642335Y-88556206D01*
X109642328Y-88556202D01*
X109507482Y-88505908D01*
X109507483Y-88505908D01*
X109447883Y-88499501D01*
X109447881Y-88499500D01*
X109447873Y-88499500D01*
X109447864Y-88499500D01*
X107352129Y-88499500D01*
X107352123Y-88499501D01*
X107292516Y-88505908D01*
X107157671Y-88556202D01*
X107157664Y-88556206D01*
X107042455Y-88642452D01*
X107042452Y-88642455D01*
X106956206Y-88757664D01*
X106956202Y-88757671D01*
X106905908Y-88892517D01*
X106899501Y-88952116D01*
X106899501Y-88952123D01*
X106899500Y-88952135D01*
X104000500Y-88952135D01*
X104000500Y-83647648D01*
X179169500Y-83647648D01*
X179169500Y-83852351D01*
X179201522Y-84054534D01*
X179264781Y-84249223D01*
X179357715Y-84431613D01*
X179478028Y-84597213D01*
X179622786Y-84741971D01*
X179777749Y-84854556D01*
X179788390Y-84862287D01*
X179904607Y-84921503D01*
X179970776Y-84955218D01*
X179970778Y-84955218D01*
X179970781Y-84955220D01*
X180075137Y-84989127D01*
X180165465Y-85018477D01*
X180266557Y-85034488D01*
X180367648Y-85050500D01*
X180367649Y-85050500D01*
X180572351Y-85050500D01*
X180572352Y-85050500D01*
X180774534Y-85018477D01*
X180969219Y-84955220D01*
X181151610Y-84862287D01*
X181244590Y-84794732D01*
X181317213Y-84741971D01*
X181317215Y-84741968D01*
X181317219Y-84741966D01*
X181461966Y-84597219D01*
X181461968Y-84597215D01*
X181461971Y-84597213D01*
X181514732Y-84524590D01*
X181582287Y-84431610D01*
X181675220Y-84249219D01*
X181738477Y-84054534D01*
X181770500Y-83852352D01*
X181770500Y-83647648D01*
X186789500Y-83647648D01*
X186789500Y-83852351D01*
X186821522Y-84054534D01*
X186884781Y-84249223D01*
X186977715Y-84431613D01*
X187098028Y-84597213D01*
X187242786Y-84741971D01*
X187397749Y-84854556D01*
X187408390Y-84862287D01*
X187524607Y-84921503D01*
X187590776Y-84955218D01*
X187590778Y-84955218D01*
X187590781Y-84955220D01*
X187695137Y-84989127D01*
X187785465Y-85018477D01*
X187886557Y-85034488D01*
X187987648Y-85050500D01*
X187987649Y-85050500D01*
X188192351Y-85050500D01*
X188192352Y-85050500D01*
X188394534Y-85018477D01*
X188589219Y-84955220D01*
X188771610Y-84862287D01*
X188864590Y-84794732D01*
X188937213Y-84741971D01*
X188937215Y-84741968D01*
X188937219Y-84741966D01*
X189081966Y-84597219D01*
X189081968Y-84597215D01*
X189081971Y-84597213D01*
X189134732Y-84524590D01*
X189202287Y-84431610D01*
X189295220Y-84249219D01*
X189358477Y-84054534D01*
X189390500Y-83852352D01*
X189390500Y-83647648D01*
X191869500Y-83647648D01*
X191869500Y-83852351D01*
X191901522Y-84054534D01*
X191964781Y-84249223D01*
X192057715Y-84431613D01*
X192178028Y-84597213D01*
X192322786Y-84741971D01*
X192477749Y-84854556D01*
X192488390Y-84862287D01*
X192604607Y-84921503D01*
X192670776Y-84955218D01*
X192670778Y-84955218D01*
X192670781Y-84955220D01*
X192775137Y-84989127D01*
X192865465Y-85018477D01*
X192966557Y-85034488D01*
X193067648Y-85050500D01*
X193067649Y-85050500D01*
X193272351Y-85050500D01*
X193272352Y-85050500D01*
X193474534Y-85018477D01*
X193669219Y-84955220D01*
X193851610Y-84862287D01*
X193944590Y-84794732D01*
X194017213Y-84741971D01*
X194017215Y-84741968D01*
X194017219Y-84741966D01*
X194161966Y-84597219D01*
X194161968Y-84597215D01*
X194161971Y-84597213D01*
X194214732Y-84524590D01*
X194282287Y-84431610D01*
X194375220Y-84249219D01*
X194438477Y-84054534D01*
X194470500Y-83852352D01*
X194470500Y-83647648D01*
X196949500Y-83647648D01*
X196949500Y-83852351D01*
X196981522Y-84054534D01*
X197044781Y-84249223D01*
X197137715Y-84431613D01*
X197258028Y-84597213D01*
X197402786Y-84741971D01*
X197557749Y-84854556D01*
X197568390Y-84862287D01*
X197684607Y-84921503D01*
X197750776Y-84955218D01*
X197750778Y-84955218D01*
X197750781Y-84955220D01*
X197855137Y-84989127D01*
X197945465Y-85018477D01*
X198046557Y-85034488D01*
X198147648Y-85050500D01*
X198147649Y-85050500D01*
X198352351Y-85050500D01*
X198352352Y-85050500D01*
X198554534Y-85018477D01*
X198749219Y-84955220D01*
X198931610Y-84862287D01*
X199024590Y-84794732D01*
X199097213Y-84741971D01*
X199097215Y-84741968D01*
X199097219Y-84741966D01*
X199241966Y-84597219D01*
X199241968Y-84597215D01*
X199241971Y-84597213D01*
X199294732Y-84524590D01*
X199362287Y-84431610D01*
X199455220Y-84249219D01*
X199518477Y-84054534D01*
X199550500Y-83852352D01*
X199550500Y-83647648D01*
X199518477Y-83445466D01*
X199455220Y-83250781D01*
X199455218Y-83250778D01*
X199455218Y-83250776D01*
X199421503Y-83184607D01*
X199362287Y-83068390D01*
X199354556Y-83057749D01*
X199241971Y-82902786D01*
X199097213Y-82758028D01*
X198931613Y-82637715D01*
X198931612Y-82637714D01*
X198931610Y-82637713D01*
X198874653Y-82608691D01*
X198749223Y-82544781D01*
X198554534Y-82481522D01*
X198379995Y-82453878D01*
X198352352Y-82449500D01*
X198147648Y-82449500D01*
X198123329Y-82453351D01*
X197945465Y-82481522D01*
X197750776Y-82544781D01*
X197568386Y-82637715D01*
X197402786Y-82758028D01*
X197258028Y-82902786D01*
X197137715Y-83068386D01*
X197044781Y-83250776D01*
X196981522Y-83445465D01*
X196949500Y-83647648D01*
X194470500Y-83647648D01*
X194438477Y-83445466D01*
X194375220Y-83250781D01*
X194375218Y-83250778D01*
X194375218Y-83250776D01*
X194341503Y-83184607D01*
X194282287Y-83068390D01*
X194274556Y-83057749D01*
X194161971Y-82902786D01*
X194017213Y-82758028D01*
X193851613Y-82637715D01*
X193851612Y-82637714D01*
X193851610Y-82637713D01*
X193794653Y-82608691D01*
X193669223Y-82544781D01*
X193474534Y-82481522D01*
X193299995Y-82453878D01*
X193272352Y-82449500D01*
X193067648Y-82449500D01*
X193043329Y-82453351D01*
X192865465Y-82481522D01*
X192670776Y-82544781D01*
X192488386Y-82637715D01*
X192322786Y-82758028D01*
X192178028Y-82902786D01*
X192057715Y-83068386D01*
X191964781Y-83250776D01*
X191901522Y-83445465D01*
X191869500Y-83647648D01*
X189390500Y-83647648D01*
X189358477Y-83445466D01*
X189295220Y-83250781D01*
X189295218Y-83250778D01*
X189295218Y-83250776D01*
X189261503Y-83184607D01*
X189202287Y-83068390D01*
X189194556Y-83057749D01*
X189081971Y-82902786D01*
X188937213Y-82758028D01*
X188771613Y-82637715D01*
X188771612Y-82637714D01*
X188771610Y-82637713D01*
X188714653Y-82608691D01*
X188589223Y-82544781D01*
X188394534Y-82481522D01*
X188219995Y-82453878D01*
X188192352Y-82449500D01*
X187987648Y-82449500D01*
X187963329Y-82453351D01*
X187785465Y-82481522D01*
X187590776Y-82544781D01*
X187408386Y-82637715D01*
X187242786Y-82758028D01*
X187098028Y-82902786D01*
X186977715Y-83068386D01*
X186884781Y-83250776D01*
X186821522Y-83445465D01*
X186789500Y-83647648D01*
X181770500Y-83647648D01*
X181738477Y-83445466D01*
X181675220Y-83250781D01*
X181675218Y-83250778D01*
X181675218Y-83250776D01*
X181641503Y-83184607D01*
X181582287Y-83068390D01*
X181574556Y-83057749D01*
X181461971Y-82902786D01*
X181317213Y-82758028D01*
X181151613Y-82637715D01*
X181151612Y-82637714D01*
X181151610Y-82637713D01*
X181094653Y-82608691D01*
X180969223Y-82544781D01*
X180774534Y-82481522D01*
X180599995Y-82453878D01*
X180572352Y-82449500D01*
X180367648Y-82449500D01*
X180343329Y-82453351D01*
X180165465Y-82481522D01*
X179970776Y-82544781D01*
X179788386Y-82637715D01*
X179622786Y-82758028D01*
X179478028Y-82902786D01*
X179357715Y-83068386D01*
X179264781Y-83250776D01*
X179201522Y-83445465D01*
X179169500Y-83647648D01*
X104000500Y-83647648D01*
X104000500Y-44377065D01*
X105624500Y-44377065D01*
X105624500Y-44622934D01*
X105641737Y-44753854D01*
X105656591Y-44866677D01*
X105695715Y-45012691D01*
X105720222Y-45104152D01*
X105720225Y-45104162D01*
X105814303Y-45331285D01*
X105814306Y-45331292D01*
X105937233Y-45544208D01*
X105937235Y-45544211D01*
X105937236Y-45544212D01*
X106086897Y-45739254D01*
X106086903Y-45739261D01*
X106260738Y-45913096D01*
X106260744Y-45913101D01*
X106455792Y-46062767D01*
X106668708Y-46185694D01*
X106895847Y-46279778D01*
X107133323Y-46343409D01*
X107377073Y-46375500D01*
X107377080Y-46375500D01*
X107622920Y-46375500D01*
X107622927Y-46375500D01*
X107866677Y-46343409D01*
X108104153Y-46279778D01*
X108331292Y-46185694D01*
X108544208Y-46062767D01*
X108739256Y-45913101D01*
X108913101Y-45739256D01*
X109062767Y-45544208D01*
X109185694Y-45331292D01*
X109279778Y-45104153D01*
X109321087Y-44949983D01*
X179959500Y-44949983D01*
X179959500Y-46550001D01*
X179959501Y-46550018D01*
X179970000Y-46652796D01*
X179970001Y-46652799D01*
X180025185Y-46819331D01*
X180025186Y-46819334D01*
X180117288Y-46968656D01*
X180241344Y-47092712D01*
X180390666Y-47184814D01*
X180557203Y-47239999D01*
X180659991Y-47250500D01*
X181494217Y-47250499D01*
X181561256Y-47270183D01*
X181581898Y-47286818D01*
X189213181Y-54918101D01*
X189246666Y-54979424D01*
X189249500Y-55005782D01*
X189249500Y-80349547D01*
X189240061Y-80397000D01*
X189162949Y-80583163D01*
X189162947Y-80583171D01*
X189124500Y-80776455D01*
X189124500Y-80973544D01*
X189162947Y-81166828D01*
X189162949Y-81166836D01*
X189238367Y-81348910D01*
X189238372Y-81348920D01*
X189347860Y-81512780D01*
X189347863Y-81512784D01*
X189487215Y-81652136D01*
X189487219Y-81652139D01*
X189651079Y-81761627D01*
X189651083Y-81761629D01*
X189651086Y-81761631D01*
X189833164Y-81837051D01*
X190026455Y-81875499D01*
X190026458Y-81875500D01*
X190026460Y-81875500D01*
X190223542Y-81875500D01*
X190223543Y-81875499D01*
X190416836Y-81837051D01*
X190598914Y-81761631D01*
X190762781Y-81652139D01*
X190887780Y-81527140D01*
X190887782Y-81527139D01*
X191027139Y-81387782D01*
X191032155Y-81380276D01*
X191136632Y-81223914D01*
X191212052Y-81041835D01*
X191250500Y-80848540D01*
X191250500Y-80651460D01*
X191250500Y-67603713D01*
X191649500Y-67603713D01*
X191649500Y-67816286D01*
X191682753Y-68026239D01*
X191748444Y-68228414D01*
X191844951Y-68417820D01*
X191969890Y-68589786D01*
X192120213Y-68740109D01*
X192292182Y-68865050D01*
X192300946Y-68869516D01*
X192351742Y-68917491D01*
X192368536Y-68985312D01*
X192345998Y-69051447D01*
X192300946Y-69090484D01*
X192292182Y-69094949D01*
X192120213Y-69219890D01*
X191969890Y-69370213D01*
X191844951Y-69542179D01*
X191748444Y-69731585D01*
X191682753Y-69933760D01*
X191649500Y-70143713D01*
X191649500Y-70356286D01*
X191682753Y-70566239D01*
X191748444Y-70768414D01*
X191844951Y-70957820D01*
X191969890Y-71129786D01*
X192120213Y-71280109D01*
X192292182Y-71405050D01*
X192300946Y-71409516D01*
X192351742Y-71457491D01*
X192368536Y-71525312D01*
X192345998Y-71591447D01*
X192300946Y-71630484D01*
X192292182Y-71634949D01*
X192120213Y-71759890D01*
X191969890Y-71910213D01*
X191844951Y-72082179D01*
X191748444Y-72271585D01*
X191682753Y-72473760D01*
X191649500Y-72683713D01*
X191649500Y-72896286D01*
X191682753Y-73106239D01*
X191748444Y-73308414D01*
X191844951Y-73497820D01*
X191969890Y-73669786D01*
X192120213Y-73820109D01*
X192292182Y-73945050D01*
X192300946Y-73949516D01*
X192351742Y-73997491D01*
X192368536Y-74065312D01*
X192345998Y-74131447D01*
X192300946Y-74170484D01*
X192292182Y-74174949D01*
X192120213Y-74299890D01*
X191969890Y-74450213D01*
X191844951Y-74622179D01*
X191748444Y-74811585D01*
X191682753Y-75013760D01*
X191649500Y-75223713D01*
X191649500Y-75436286D01*
X191682753Y-75646239D01*
X191748444Y-75848414D01*
X191844951Y-76037820D01*
X191969890Y-76209786D01*
X192120213Y-76360109D01*
X192292179Y-76485048D01*
X192292181Y-76485049D01*
X192292184Y-76485051D01*
X192481588Y-76581557D01*
X192683757Y-76647246D01*
X192893713Y-76680500D01*
X192893714Y-76680500D01*
X193106286Y-76680500D01*
X193106287Y-76680500D01*
X193316243Y-76647246D01*
X193518412Y-76581557D01*
X193707816Y-76485051D01*
X193729789Y-76469086D01*
X193879786Y-76360109D01*
X193879788Y-76360106D01*
X193879792Y-76360104D01*
X194030104Y-76209792D01*
X194030106Y-76209788D01*
X194030109Y-76209786D01*
X194155048Y-76037820D01*
X194155047Y-76037820D01*
X194155051Y-76037816D01*
X194251557Y-75848412D01*
X194317246Y-75646243D01*
X194350500Y-75436287D01*
X194350500Y-75223713D01*
X194317246Y-75013757D01*
X194251557Y-74811588D01*
X194155051Y-74622184D01*
X194155049Y-74622181D01*
X194155048Y-74622179D01*
X194030109Y-74450213D01*
X193879786Y-74299890D01*
X193707820Y-74174951D01*
X193707115Y-74174591D01*
X193699054Y-74170485D01*
X193648259Y-74122512D01*
X193631463Y-74054692D01*
X193653999Y-73988556D01*
X193699054Y-73949515D01*
X193707816Y-73945051D01*
X193729789Y-73929086D01*
X193879786Y-73820109D01*
X193879788Y-73820106D01*
X193879792Y-73820104D01*
X194030104Y-73669792D01*
X194030106Y-73669788D01*
X194030109Y-73669786D01*
X194155048Y-73497820D01*
X194155047Y-73497820D01*
X194155051Y-73497816D01*
X194251557Y-73308412D01*
X194317246Y-73106243D01*
X194350500Y-72896287D01*
X194350500Y-72683713D01*
X194317246Y-72473757D01*
X194251557Y-72271588D01*
X194155051Y-72082184D01*
X194155049Y-72082181D01*
X194155048Y-72082179D01*
X194030109Y-71910213D01*
X193879786Y-71759890D01*
X193707820Y-71634951D01*
X193707115Y-71634591D01*
X193699054Y-71630485D01*
X193648259Y-71582512D01*
X193631463Y-71514692D01*
X193653999Y-71448556D01*
X193699054Y-71409515D01*
X193707816Y-71405051D01*
X193729789Y-71389086D01*
X193879786Y-71280109D01*
X193879788Y-71280106D01*
X193879792Y-71280104D01*
X194030104Y-71129792D01*
X194030106Y-71129788D01*
X194030109Y-71129786D01*
X194155048Y-70957820D01*
X194155047Y-70957820D01*
X194155051Y-70957816D01*
X194251557Y-70768412D01*
X194317246Y-70566243D01*
X194350500Y-70356287D01*
X194350500Y-70143713D01*
X194317246Y-69933757D01*
X194251557Y-69731588D01*
X194155051Y-69542184D01*
X194155049Y-69542181D01*
X194155048Y-69542179D01*
X194030109Y-69370213D01*
X193879786Y-69219890D01*
X193707820Y-69094951D01*
X193707115Y-69094591D01*
X193699054Y-69090485D01*
X193648259Y-69042512D01*
X193631463Y-68974692D01*
X193653999Y-68908556D01*
X193699054Y-68869515D01*
X193707816Y-68865051D01*
X193729789Y-68849086D01*
X193879786Y-68740109D01*
X193879788Y-68740106D01*
X193879792Y-68740104D01*
X194030104Y-68589792D01*
X194030106Y-68589788D01*
X194030109Y-68589786D01*
X194155048Y-68417820D01*
X194155047Y-68417820D01*
X194155051Y-68417816D01*
X194251557Y-68228412D01*
X194317246Y-68026243D01*
X194350500Y-67816287D01*
X194350500Y-67603713D01*
X194317246Y-67393757D01*
X194251557Y-67191588D01*
X194155051Y-67002184D01*
X194155049Y-67002181D01*
X194155048Y-67002179D01*
X194030109Y-66830213D01*
X193916181Y-66716285D01*
X193882696Y-66654962D01*
X193887680Y-66585270D01*
X193929552Y-66529337D01*
X193960529Y-66512422D01*
X194092086Y-66463354D01*
X194092093Y-66463350D01*
X194207187Y-66377190D01*
X194207190Y-66377187D01*
X194293350Y-66262093D01*
X194293354Y-66262086D01*
X194343596Y-66127379D01*
X194343598Y-66127372D01*
X194349999Y-66067844D01*
X194350000Y-66067827D01*
X194350000Y-65420000D01*
X193433012Y-65420000D01*
X193465925Y-65362993D01*
X193500000Y-65235826D01*
X193500000Y-65104174D01*
X193465925Y-64977007D01*
X193433012Y-64920000D01*
X194350000Y-64920000D01*
X194350000Y-64272172D01*
X194349999Y-64272155D01*
X194343598Y-64212627D01*
X194343596Y-64212620D01*
X194293354Y-64077913D01*
X194293350Y-64077906D01*
X194207190Y-63962812D01*
X194207187Y-63962809D01*
X194092093Y-63876649D01*
X194092086Y-63876645D01*
X193957379Y-63826403D01*
X193957372Y-63826401D01*
X193897844Y-63820000D01*
X193250000Y-63820000D01*
X193250000Y-64736988D01*
X193192993Y-64704075D01*
X193065826Y-64670000D01*
X192934174Y-64670000D01*
X192807007Y-64704075D01*
X192750000Y-64736988D01*
X192750000Y-63820000D01*
X192102155Y-63820000D01*
X192042627Y-63826401D01*
X192042620Y-63826403D01*
X191907913Y-63876645D01*
X191907906Y-63876649D01*
X191792812Y-63962809D01*
X191792809Y-63962812D01*
X191706649Y-64077906D01*
X191706645Y-64077913D01*
X191656403Y-64212620D01*
X191656401Y-64212627D01*
X191650000Y-64272155D01*
X191650000Y-64920000D01*
X192566988Y-64920000D01*
X192534075Y-64977007D01*
X192500000Y-65104174D01*
X192500000Y-65235826D01*
X192534075Y-65362993D01*
X192566988Y-65420000D01*
X191650000Y-65420000D01*
X191650000Y-66067844D01*
X191656401Y-66127372D01*
X191656403Y-66127379D01*
X191706645Y-66262086D01*
X191706649Y-66262093D01*
X191792809Y-66377187D01*
X191792812Y-66377190D01*
X191907906Y-66463350D01*
X191907913Y-66463354D01*
X192039470Y-66512422D01*
X192095404Y-66554293D01*
X192119821Y-66619758D01*
X192104969Y-66688031D01*
X192083819Y-66716285D01*
X191969889Y-66830215D01*
X191844951Y-67002179D01*
X191748444Y-67191585D01*
X191682753Y-67393760D01*
X191649500Y-67603713D01*
X191250500Y-67603713D01*
X191250500Y-54441459D01*
X191250500Y-54441456D01*
X191212052Y-54248170D01*
X191212051Y-54248169D01*
X191212051Y-54248165D01*
X191212049Y-54248160D01*
X191136635Y-54066092D01*
X191136628Y-54066079D01*
X191027139Y-53902218D01*
X191027136Y-53902214D01*
X190884686Y-53759764D01*
X190884655Y-53759735D01*
X184484320Y-47359400D01*
X184450835Y-47298077D01*
X184455819Y-47228385D01*
X184497691Y-47172452D01*
X184533684Y-47153788D01*
X184575800Y-47140103D01*
X184786163Y-47032918D01*
X184786169Y-47032914D01*
X184869104Y-46972658D01*
X184869105Y-46972658D01*
X184211058Y-46314612D01*
X184231591Y-46309111D01*
X184368408Y-46230119D01*
X184480119Y-46118408D01*
X184559111Y-45981591D01*
X184564612Y-45961059D01*
X185222658Y-46619105D01*
X185222658Y-46619104D01*
X185282914Y-46536169D01*
X185282918Y-46536163D01*
X185390102Y-46325802D01*
X185463065Y-46101247D01*
X185500000Y-45868052D01*
X185500000Y-45631947D01*
X185463065Y-45398752D01*
X185390102Y-45174197D01*
X185282914Y-44963828D01*
X185222658Y-44880894D01*
X185222658Y-44880893D01*
X184564612Y-45538940D01*
X184559111Y-45518409D01*
X184480119Y-45381592D01*
X184368408Y-45269881D01*
X184231591Y-45190889D01*
X184211059Y-45185387D01*
X184869105Y-44527340D01*
X184869104Y-44527339D01*
X184794785Y-44473343D01*
X184794769Y-44473332D01*
X184786171Y-44467085D01*
X184609496Y-44377065D01*
X191624500Y-44377065D01*
X191624500Y-44622934D01*
X191641737Y-44753854D01*
X191656591Y-44866677D01*
X191695715Y-45012691D01*
X191720222Y-45104152D01*
X191720225Y-45104162D01*
X191814303Y-45331285D01*
X191814306Y-45331292D01*
X191937233Y-45544208D01*
X191937235Y-45544211D01*
X191937236Y-45544212D01*
X192086897Y-45739254D01*
X192086903Y-45739261D01*
X192260738Y-45913096D01*
X192260744Y-45913101D01*
X192455792Y-46062767D01*
X192668708Y-46185694D01*
X192895847Y-46279778D01*
X193133323Y-46343409D01*
X193377073Y-46375500D01*
X193377080Y-46375500D01*
X193622920Y-46375500D01*
X193622927Y-46375500D01*
X193866677Y-46343409D01*
X194104153Y-46279778D01*
X194331292Y-46185694D01*
X194544208Y-46062767D01*
X194739256Y-45913101D01*
X194913101Y-45739256D01*
X195062767Y-45544208D01*
X195185694Y-45331292D01*
X195279778Y-45104153D01*
X195343409Y-44866677D01*
X195375500Y-44622927D01*
X195375500Y-44377073D01*
X195343409Y-44133323D01*
X195279778Y-43895847D01*
X195185694Y-43668708D01*
X195062767Y-43455792D01*
X194913101Y-43260744D01*
X194913096Y-43260738D01*
X194739261Y-43086903D01*
X194739254Y-43086897D01*
X194544212Y-42937236D01*
X194544211Y-42937235D01*
X194544208Y-42937233D01*
X194331292Y-42814306D01*
X194331285Y-42814303D01*
X194104162Y-42720225D01*
X194104155Y-42720223D01*
X194104153Y-42720222D01*
X193866677Y-42656591D01*
X193825939Y-42651227D01*
X193622934Y-42624500D01*
X193622927Y-42624500D01*
X193377073Y-42624500D01*
X193377065Y-42624500D01*
X193145059Y-42655045D01*
X193133323Y-42656591D01*
X192895847Y-42720222D01*
X192895837Y-42720225D01*
X192668714Y-42814303D01*
X192668705Y-42814307D01*
X192455787Y-42937236D01*
X192260745Y-43086897D01*
X192260738Y-43086903D01*
X192086903Y-43260738D01*
X192086897Y-43260745D01*
X191937236Y-43455787D01*
X191814307Y-43668705D01*
X191814303Y-43668714D01*
X191720225Y-43895837D01*
X191720222Y-43895847D01*
X191668799Y-44087764D01*
X191656592Y-44133320D01*
X191656590Y-44133331D01*
X191624500Y-44377065D01*
X184609496Y-44377065D01*
X184575802Y-44359897D01*
X184351247Y-44286934D01*
X184351248Y-44286934D01*
X184118052Y-44250000D01*
X183881948Y-44250000D01*
X183648752Y-44286934D01*
X183424197Y-44359897D01*
X183213830Y-44467084D01*
X183130894Y-44527340D01*
X183788941Y-45185387D01*
X183768409Y-45190889D01*
X183631592Y-45269881D01*
X183519881Y-45381592D01*
X183440889Y-45518409D01*
X183435387Y-45538941D01*
X182996818Y-45100372D01*
X182963333Y-45039049D01*
X182960499Y-45012691D01*
X182960499Y-44949998D01*
X182960498Y-44949981D01*
X182949999Y-44847203D01*
X182949998Y-44847200D01*
X182919066Y-44753854D01*
X182894814Y-44680666D01*
X182802712Y-44531344D01*
X182678656Y-44407288D01*
X182529334Y-44315186D01*
X182362797Y-44260001D01*
X182362795Y-44260000D01*
X182260010Y-44249500D01*
X180659998Y-44249500D01*
X180659981Y-44249501D01*
X180557203Y-44260000D01*
X180557200Y-44260001D01*
X180390668Y-44315185D01*
X180390663Y-44315187D01*
X180241342Y-44407289D01*
X180117289Y-44531342D01*
X180025187Y-44680663D01*
X180025186Y-44680666D01*
X179970001Y-44847203D01*
X179970001Y-44847204D01*
X179970000Y-44847204D01*
X179959500Y-44949983D01*
X109321087Y-44949983D01*
X109343409Y-44866677D01*
X109375500Y-44622927D01*
X109375500Y-44377073D01*
X109343409Y-44133323D01*
X109279778Y-43895847D01*
X109185694Y-43668708D01*
X109062767Y-43455792D01*
X108913101Y-43260744D01*
X108913096Y-43260738D01*
X108739261Y-43086903D01*
X108739254Y-43086897D01*
X108544212Y-42937236D01*
X108544211Y-42937235D01*
X108544208Y-42937233D01*
X108331292Y-42814306D01*
X108331285Y-42814303D01*
X108104162Y-42720225D01*
X108104155Y-42720223D01*
X108104153Y-42720222D01*
X107866677Y-42656591D01*
X107825939Y-42651227D01*
X107622934Y-42624500D01*
X107622927Y-42624500D01*
X107377073Y-42624500D01*
X107377065Y-42624500D01*
X107145059Y-42655045D01*
X107133323Y-42656591D01*
X106895847Y-42720222D01*
X106895837Y-42720225D01*
X106668714Y-42814303D01*
X106668705Y-42814307D01*
X106455787Y-42937236D01*
X106260745Y-43086897D01*
X106260738Y-43086903D01*
X106086903Y-43260738D01*
X106086897Y-43260745D01*
X105937236Y-43455787D01*
X105814307Y-43668705D01*
X105814303Y-43668714D01*
X105720225Y-43895837D01*
X105720222Y-43895847D01*
X105668799Y-44087764D01*
X105656592Y-44133320D01*
X105656590Y-44133331D01*
X105624500Y-44377065D01*
X104000500Y-44377065D01*
X104000500Y-41124500D01*
X104020185Y-41057461D01*
X104072989Y-41011706D01*
X104124500Y-41000500D01*
X104165892Y-41000500D01*
X202834108Y-41000500D01*
X202875500Y-41000500D01*
X202942539Y-41020185D01*
G37*
G04 #@! TD.AperFunction*
M02*
