%TF.GenerationSoftware,KiCad,Pcbnew,10.0.0*%
%TF.CreationDate,2026-04-12T23:31:10-04:00*%
%TF.ProjectId,gpt-alarm,6770742d-616c-4617-926d-2e6b69636164,rev?*%
%TF.SameCoordinates,Original*%
%TF.FileFunction,Drillmap*%
%TF.FilePolarity,Positive*%
%FSLAX45Y45*%
G04 Gerber Fmt 4.5, Leading zero omitted, Abs format (unit mm)*
G04 Created by KiCad (PCBNEW 10.0.0) date 2026-04-12 23:31:10*
%MOMM*%
%LPD*%
G01*
G04 APERTURE LIST*
%ADD10C,0.050000*%
%ADD11C,0.200000*%
G04 APERTURE END LIST*
D10*
X10350000Y-4110000D02*
G75*
G02*
X10410000Y-4050000I60000J0D01*
G01*
X10350000Y-11890000D02*
X10350000Y-4110000D01*
X10410000Y-4050000D02*
X20290000Y-4050000D01*
X10410000Y-11950000D02*
G75*
G02*
X10350000Y-11890000I0J60000D01*
G01*
X10887500Y-4450000D02*
G75*
G02*
X10612500Y-4450000I-137500J0D01*
G01*
X10612500Y-4450000D02*
G75*
G02*
X10887500Y-4450000I137500J0D01*
G01*
X10887500Y-10250000D02*
G75*
G02*
X10612500Y-10250000I-137500J0D01*
G01*
X10612500Y-10250000D02*
G75*
G02*
X10887500Y-10250000I137500J0D01*
G01*
X19487500Y-4450000D02*
G75*
G02*
X19212500Y-4450000I-137500J0D01*
G01*
X19212500Y-4450000D02*
G75*
G02*
X19487500Y-4450000I137500J0D01*
G01*
X19487500Y-10250000D02*
G75*
G02*
X19212500Y-10250000I-137500J0D01*
G01*
X19212500Y-10250000D02*
G75*
G02*
X19487500Y-10250000I137500J0D01*
G01*
X20290000Y-4050000D02*
G75*
G02*
X20350000Y-4110000I0J-60000D01*
G01*
X20290000Y-11950000D02*
X10410000Y-11950000D01*
X20350000Y-4110000D02*
X20350000Y-11890000D01*
X20350000Y-11890000D02*
G75*
G02*
X20290000Y-11950000I-60000J0D01*
G01*
D11*
X10608277Y-12263984D02*
X10608277Y-12063984D01*
X10608277Y-12063984D02*
X10655896Y-12063984D01*
X10655896Y-12063984D02*
X10684467Y-12073508D01*
X10684467Y-12073508D02*
X10703515Y-12092555D01*
X10703515Y-12092555D02*
X10713039Y-12111603D01*
X10713039Y-12111603D02*
X10722563Y-12149698D01*
X10722563Y-12149698D02*
X10722563Y-12178269D01*
X10722563Y-12178269D02*
X10713039Y-12216365D01*
X10713039Y-12216365D02*
X10703515Y-12235412D01*
X10703515Y-12235412D02*
X10684467Y-12254460D01*
X10684467Y-12254460D02*
X10655896Y-12263984D01*
X10655896Y-12263984D02*
X10608277Y-12263984D01*
X10808277Y-12263984D02*
X10808277Y-12130650D01*
X10808277Y-12168746D02*
X10817801Y-12149698D01*
X10817801Y-12149698D02*
X10827324Y-12140174D01*
X10827324Y-12140174D02*
X10846372Y-12130650D01*
X10846372Y-12130650D02*
X10865420Y-12130650D01*
X10932086Y-12263984D02*
X10932086Y-12130650D01*
X10932086Y-12063984D02*
X10922563Y-12073508D01*
X10922563Y-12073508D02*
X10932086Y-12083031D01*
X10932086Y-12083031D02*
X10941610Y-12073508D01*
X10941610Y-12073508D02*
X10932086Y-12063984D01*
X10932086Y-12063984D02*
X10932086Y-12083031D01*
X11055896Y-12263984D02*
X11036848Y-12254460D01*
X11036848Y-12254460D02*
X11027324Y-12235412D01*
X11027324Y-12235412D02*
X11027324Y-12063984D01*
X11160658Y-12263984D02*
X11141610Y-12254460D01*
X11141610Y-12254460D02*
X11132086Y-12235412D01*
X11132086Y-12235412D02*
X11132086Y-12063984D01*
X11389229Y-12263984D02*
X11389229Y-12063984D01*
X11389229Y-12063984D02*
X11455896Y-12206841D01*
X11455896Y-12206841D02*
X11522562Y-12063984D01*
X11522562Y-12063984D02*
X11522562Y-12263984D01*
X11703515Y-12263984D02*
X11703515Y-12159222D01*
X11703515Y-12159222D02*
X11693991Y-12140174D01*
X11693991Y-12140174D02*
X11674943Y-12130650D01*
X11674943Y-12130650D02*
X11636848Y-12130650D01*
X11636848Y-12130650D02*
X11617801Y-12140174D01*
X11703515Y-12254460D02*
X11684467Y-12263984D01*
X11684467Y-12263984D02*
X11636848Y-12263984D01*
X11636848Y-12263984D02*
X11617801Y-12254460D01*
X11617801Y-12254460D02*
X11608277Y-12235412D01*
X11608277Y-12235412D02*
X11608277Y-12216365D01*
X11608277Y-12216365D02*
X11617801Y-12197317D01*
X11617801Y-12197317D02*
X11636848Y-12187793D01*
X11636848Y-12187793D02*
X11684467Y-12187793D01*
X11684467Y-12187793D02*
X11703515Y-12178269D01*
X11798753Y-12130650D02*
X11798753Y-12330650D01*
X11798753Y-12140174D02*
X11817801Y-12130650D01*
X11817801Y-12130650D02*
X11855896Y-12130650D01*
X11855896Y-12130650D02*
X11874943Y-12140174D01*
X11874943Y-12140174D02*
X11884467Y-12149698D01*
X11884467Y-12149698D02*
X11893991Y-12168746D01*
X11893991Y-12168746D02*
X11893991Y-12225888D01*
X11893991Y-12225888D02*
X11884467Y-12244936D01*
X11884467Y-12244936D02*
X11874943Y-12254460D01*
X11874943Y-12254460D02*
X11855896Y-12263984D01*
X11855896Y-12263984D02*
X11817801Y-12263984D01*
X11817801Y-12263984D02*
X11798753Y-12254460D01*
X11979705Y-12244936D02*
X11989229Y-12254460D01*
X11989229Y-12254460D02*
X11979705Y-12263984D01*
X11979705Y-12263984D02*
X11970182Y-12254460D01*
X11970182Y-12254460D02*
X11979705Y-12244936D01*
X11979705Y-12244936D02*
X11979705Y-12263984D01*
X11979705Y-12140174D02*
X11989229Y-12149698D01*
X11989229Y-12149698D02*
X11979705Y-12159222D01*
X11979705Y-12159222D02*
X11970182Y-12149698D01*
X11970182Y-12149698D02*
X11979705Y-12140174D01*
X11979705Y-12140174D02*
X11979705Y-12159222D01*
M02*
